# xmcd CD database file
# Copyright (C) 1993-1998 Ti Kan
# 
# Track frame offsets:
#     150
#     10600
#     23585
#     39645
#     51815
#     63562
#     76627
#     90885
#     104192
#     116657
#     133495
#     146375
# 
# Disc length: 2143 seconds
# 
# Revision: 1
# Processed by: cddbd v1.4b41PL1 Copyright (c) Steve Scherf et al.
# Submitted via: DiscPlay 4.0.4
# 
DISCID=97085d0c
DTITLE=Frankie Davidson - Australian Born Australian Bred
DYEAR=1900
DGENRE=
TTITLE0=Australian Born Australian Bred
TTITLE1=Ya Wouldn't Be Australian
TTITLE2=Not Bloody Golf Again
TTITLE3=Smoke, Smoke, Smoke That Cigarette
TTITLE4=Riding Through The Dandenong Ranges
TTITLE5=Big Bickies
TTITLE6=It's Bloody Bonza Mate
TTITLE7=G'day G'day
TTITLE8=Black Marlin
TTITLE9=Arnhem (Kingdom Of The Aborigines)
TTITLE10=The Rooty Hill Rose
TTITLE11=Toss Another Shrimp On The Barbie
EXTD=
EXTT0=
EXTT1=
EXTT2=
EXTT3=
EXTT4=
EXTT5=
EXTT6=
EXTT7=
EXTT8=
EXTT9=
EXTT10=
EXTT11=
PLAYORDER=
